<svg xmlns="http://www.w3.org/2000/svg" width="64" height="64" viewBox="0 0 64 64" role="img" aria-labelledby="title"><title>Day</title><g stroke="#f3e7c7" stroke-width="6" stroke-linejoin="round" stroke-linecap="round" fill="#b48b47"><path d="M32 18a14 14 0 1 1 0 28 14 14 0 0 1 0-28Z"/><path d="M32 6v6M32 52v6M6 32h6M52 32h6M13 13l5 5M46 46l5 5M13 51l5-5M46 18l5-5" fill="none"/></g><g stroke="#38291e" stroke-width="3" stroke-linejoin="round" stroke-linecap="round" fill="#b48b47"><path d="M32 18a14 14 0 1 1 0 28 14 14 0 0 1 0-28Z"/><path d="M32 6v6M32 52v6M6 32h6M52 32h6M13 13l5 5M46 46l5 5M13 51l5-5M46 18l5-5" fill="none"/></g></svg>