<svg xmlns="http://www.w3.org/2000/svg" width="64" height="64" viewBox="0 0 64 64" role="img" aria-labelledby="title"><title>Kindle</title><g stroke="#f3e7c7" stroke-width="6" stroke-linejoin="round" stroke-linecap="round" fill="#a64e39"><path d="M25 11l-8 13 4 8 12-5 8-12ZM12 43l17-10 12 3 13 14-8 6-18-10-12 4Z"/><path d="M42 28l8-5M32 8l3-3" fill="none"/></g><g stroke="#38291e" stroke-width="3" stroke-linejoin="round" stroke-linecap="round" fill="#a64e39"><path d="M25 11l-8 13 4 8 12-5 8-12ZM12 43l17-10 12 3 13 14-8 6-18-10-12 4Z"/><path d="M42 28l8-5M32 8l3-3" fill="none"/></g></svg>