<svg xmlns="http://www.w3.org/2000/svg" width="64" height="64" viewBox="0 0 64 64" role="img" aria-labelledby="title"><title>Ring of Cinders</title><g stroke="#f3e7c7" stroke-width="6" stroke-linejoin="round" stroke-linecap="round" fill="#a64e39"><path d="M10 31l7-17 10 3 8-10 8 13 11 1 3 16-8 15-17 6-17-7Z"/><path d="M24 28l9-5 9 10-9 10-11-8Z" fill="#f3e7c7"/></g><g stroke="#38291e" stroke-width="3" stroke-linejoin="round" stroke-linecap="round" fill="#a64e39"><path d="M10 31l7-17 10 3 8-10 8 13 11 1 3 16-8 15-17 6-17-7Z"/><path d="M24 28l9-5 9 10-9 10-11-8Z" fill="#f3e7c7"/></g></svg>