<svg xmlns="http://www.w3.org/2000/svg" width="64" height="64" viewBox="0 0 64 64" role="img" aria-labelledby="title"><title>Earth</title><g stroke="#f3e7c7" stroke-width="6" stroke-linejoin="round" stroke-linecap="round" fill="#7a6a3a"><path d="M10 27L25 11l21 4 9 21-8 17H18L8 41Z"/><path d="M25 12l-5 23 17 7 17-7M20 35l-2 17M37 42l9 10" fill="none"/></g><g stroke="#38291e" stroke-width="3" stroke-linejoin="round" stroke-linecap="round" fill="#7a6a3a"><path d="M10 27L25 11l21 4 9 21-8 17H18L8 41Z"/><path d="M25 12l-5 23 17 7 17-7M20 35l-2 17M37 42l9 10" fill="none"/></g></svg>