<svg xmlns="http://www.w3.org/2000/svg" width="64" height="64" viewBox="0 0 64 64" role="img" aria-labelledby="title"><title>Fire</title><g stroke="#f3e7c7" stroke-width="6" stroke-linejoin="round" stroke-linecap="round" fill="#a64e39"><path d="M34 7c4 15 21 19 18 34C49 60 14 60 12 39c-1-9 7-15 13-21l-1 14C33 28 36 20 34 7Z"/><path d="M33 34l8 12-9 7-8-7z" fill="#f3e7c7"/></g><g stroke="#38291e" stroke-width="3" stroke-linejoin="round" stroke-linecap="round" fill="#a64e39"><path d="M34 7c4 15 21 19 18 34C49 60 14 60 12 39c-1-9 7-15 13-21l-1 14C33 28 36 20 34 7Z"/><path d="M33 34l8 12-9 7-8-7z" fill="#f3e7c7"/></g></svg>